<?xml version="1.0" standalone="no"?>
<!DOCTYPE svg PUBLIC "-//W3C//DTD SVG 20010904//EN"
 "http://www.w3.org/TR/2001/REC-SVG-20010904/DTD/svg10.dtd">
<svg version="1.0" xmlns="http://www.w3.org/2000/svg"
 width="500.000000pt" height="297.000000pt" viewBox="0 0 500.000000 297.000000"
 preserveAspectRatio="xMidYMid meet">
<metadata>
Created by potrace 1.15, written by Peter Selinger 2001-2017
</metadata>
<g transform="translate(0.000000,297.000000) scale(0.100000,-0.100000)"
fill="#000000" stroke="none">
<path d="M2965 2494 c-273 -61 -468 -166 -655 -354 -117 -116 -198 -231 -266
-375 -64 -134 -58 -172 29 -196 58 -16 238 -6 367 21 151 31 354 117 519 222
25 15 55 28 68 28 20 0 23 -5 23 -35 0 -101 83 -189 224 -241 33 -12 62 -26
64 -32 1 -5 -33 -29 -76 -52 -162 -87 -272 -188 -272 -251 0 -37 50 -79 94
-79 20 0 58 16 102 42 85 52 194 98 325 139 55 17 112 41 126 53 26 22 26 24
14 69 -17 60 -8 107 28 141 42 40 72 30 111 -37 56 -98 75 -170 75 -292 -1
-131 -18 -204 -77 -325 -34 -67 -60 -103 -128 -171 -130 -131 -265 -189 -440
-189 -89 0 -130 -7 -130 -21 0 -36 335 -47 449 -15 232 64 397 228 492 488 87
238 100 491 39 755 -87 370 -316 603 -681 693 -115 29 -328 36 -424 14z"/>
<path d="M1578 2251 c-42 -14 -75 -17 -127 -13 -66 4 -73 3 -137 -32 -36 -20
-101 -63 -143 -95 -42 -32 -105 -72 -141 -89 -68 -32 -110 -65 -110 -85 0 -6
7 -30 16 -53 15 -40 15 -45 -4 -97 -67 -177 -67 -381 -1 -535 54 -124 261
-371 397 -470 99 -73 147 -98 253 -132 52 -17 119 -46 148 -65 29 -18 70 -36
91 -40 78 -13 210 29 244 77 9 12 16 39 16 60 0 32 -4 39 -26 44 -14 4 -44 4
-67 1 -25 -3 -54 0 -75 9 -19 8 -49 14 -66 14 -32 0 -115 35 -151 64 -19 15
-18 15 25 16 110 1 270 35 390 82 88 35 144 33 222 -7 75 -39 186 -28 269 28
64 42 88 136 38 152 -11 4 -42 2 -68 -5 -37 -9 -59 -9 -92 0 l-44 12 40 32
c83 65 183 160 254 239 63 71 201 245 225 285 4 7 -36 -9 -91 -36 -252 -127
-461 -190 -649 -199 -229 -11 -350 47 -425 202 -41 86 -40 151 5 236 18 35 41
88 51 118 l18 55 24 -30 c30 -37 73 -127 73 -153 0 -31 11 -51 27 -51 12 0 15
10 11 49 -6 60 -39 129 -95 198 -24 29 -43 57 -43 63 0 24 92 -1 119 -33 17
-21 51 -22 51 -3 0 24 -62 64 -120 79 -30 8 -56 19 -58 25 -4 14 34 34 78 42
22 3 36 12 38 23 5 24 -52 23 -101 -2 l-38 -19 -47 23 c-66 34 -134 39 -204
16z m171 -100 c27 -27 36 -82 21 -128 -7 -21 -38 -65 -70 -98 -39 -42 -62 -76
-74 -113 -10 -29 -24 -59 -33 -67 -19 -19 -77 -19 -93 0 -46 56 -17 250 51
345 51 70 157 102 198 61z"/>
</g>
</svg>
