<svg version="1.0" xmlns="http://www.w3.org/2000/svg" width="666.667" height="396" viewBox="0 0 500 297"><path d="M296.5 47.6C269.2 53.7 249.7 64.2 231 83c-11.7 11.6-19.8 23.1-26.6 37.5-6.4 13.4-5.8 17.2 2.9 19.6 5.8 1.6 23.8.6 36.7-2.1 15.1-3.1 35.4-11.7 51.9-22.2 2.5-1.5 5.5-2.8 6.8-2.8 2 0 2.3.5 2.3 3.5 0 10.1 8.3 18.9 22.4 24.1 3.3 1.2 6.2 2.6 6.4 3.2.1.5-3.3 2.9-7.6 5.2-16.2 8.7-27.2 18.8-27.2 25.1 0 3.7 5 7.9 9.4 7.9 2 0 5.8-1.6 10.2-4.2 8.5-5.2 19.4-9.8 32.5-13.9 5.5-1.7 11.2-4.1 12.6-5.3 2.6-2.2 2.6-2.4 1.4-6.9-1.7-6-.8-10.7 2.8-14.1 4.2-4 7.2-3 11.1 3.7 5.6 9.8 7.5 17 7.5 29.2-.1 13.1-1.8 20.4-7.7 32.5-3.4 6.7-6 10.3-12.8 17.1-13 13.1-26.5 18.9-44 18.9-8.9 0-13 .7-13 2.1 0 3.6 33.5 4.7 44.9 1.5 23.2-6.4 39.7-22.8 49.2-48.8 8.7-23.8 10-49.1 3.9-75.5-8.7-37-31.6-60.3-68.1-69.3-11.5-2.9-32.8-3.6-42.4-1.4z"/><path d="M157.8 71.9c-4.2 1.4-7.5 1.7-12.7 1.3-6.6-.4-7.3-.3-13.7 3.2-3.6 2-10.1 6.3-14.3 9.5-4.2 3.2-10.5 7.2-14.1 8.9-6.8 3.2-11 6.5-11 8.5 0 .6.7 3 1.6 5.3 1.5 4 1.5 4.5-.4 9.7-6.7 17.7-6.7 38.1-.1 53.5 5.4 12.4 26.1 37.1 39.7 47 9.9 7.3 14.7 9.8 25.3 13.2 5.2 1.7 11.9 4.6 14.8 6.5 2.9 1.8 7 3.6 9.1 4 7.8 1.3 21-2.9 24.4-7.7.9-1.2 1.6-3.9 1.6-6 0-3.2-.4-3.9-2.6-4.4-1.4-.4-4.4-.4-6.7-.1-2.5.3-5.4 0-7.5-.9-1.9-.8-4.9-1.4-6.6-1.4-3.2 0-11.5-3.5-15.1-6.4-1.9-1.5-1.8-1.5 2.5-1.6 11-.1 27-3.5 39-8.2 8.8-3.5 14.4-3.3 22.2.7 7.5 3.9 18.6 2.8 26.9-2.8 6.4-4.2 8.8-13.6 3.8-15.2-1.1-.4-4.2-.2-6.8.5-3.7.9-5.9.9-9.2 0l-4.4-1.2 4-3.2c8.3-6.5 18.3-16 25.4-23.9 6.3-7.1 20.1-24.5 22.5-28.5.4-.7-3.6.9-9.1 3.6-25.2 12.7-46.1 19-64.9 19.9-22.9 1.1-35-4.7-42.5-20.2-4.1-8.6-4-15.1.5-23.6 1.8-3.5 4.1-8.8 5.1-11.8l1.8-5.5 2.4 3c3 3.7 7.3 12.7 7.3 15.3 0 3.1 1.1 5.1 2.7 5.1 1.2 0 1.5-1 1.1-4.9-.6-6-3.9-12.9-9.5-19.8-2.4-2.9-4.3-5.7-4.3-6.3 0-2.4 9.2.1 11.9 3.3 1.7 2.1 5.1 2.2 5.1.3 0-2.4-6.2-6.4-12-7.9-3-.8-5.6-1.9-5.8-2.5-.4-1.4 3.4-3.4 7.8-4.2 2.2-.3 3.6-1.2 3.8-2.3.5-2.4-5.2-2.3-10.1.2l-3.8 1.9-4.7-2.3c-6.6-3.4-13.4-3.9-20.4-1.6zm17.1 10c2.7 2.7 3.6 8.2 2.1 12.8-.7 2.1-3.8 6.5-7 9.8-3.9 4.2-6.2 7.6-7.4 11.3-1 2.9-2.4 5.9-3.3 6.7-1.9 1.9-7.7 1.9-9.3 0-4.6-5.6-1.7-25 5.1-34.5 5.1-7 15.7-10.2 19.8-6.1z"/></svg>